<svg width="34" height="34" viewBox="0 0 34 34" fill="none" xmlns="http://www.w3.org/2000/svg">
<path d="M17 29.0002C12.8334 29.0002 9.15004 26.8668 7.00004 23.6668C7.05004 20.3335 13.6667 18.5002 17 18.5002C20.3334 18.5002 26.95 20.3335 27 23.6668C25.8982 25.3075 24.4098 26.6521 22.666 27.5821C20.9221 28.5122 18.9764 28.9991 17 29.0002ZM17 5.3335C18.3261 5.3335 19.5979 5.86028 20.5356 6.79796C21.4733 7.73564 22 9.00741 22 10.3335C22 11.6596 21.4733 12.9313 20.5356 13.869C19.5979 14.8067 18.3261 15.3335 17 15.3335C15.674 15.3335 14.4022 14.8067 13.4645 13.869C12.5268 12.9313 12 11.6596 12 10.3335C12 9.00741 12.5268 7.73564 13.4645 6.79796C14.4022 5.86028 15.674 5.3335 17 5.3335ZM17 0.333496C14.8113 0.333496 12.6441 0.764592 10.622 1.60217C8.59989 2.43975 6.76257 3.66741 5.21493 5.21505C2.08932 8.34066 0.333374 12.5799 0.333374 17.0002C0.333374 21.4204 2.08932 25.6597 5.21493 28.7853C6.76257 30.3329 8.59989 31.5606 10.622 32.3982C12.6441 33.2357 14.8113 33.6668 17 33.6668C21.4203 33.6668 25.6595 31.9109 28.7852 28.7853C31.9108 25.6597 33.6667 21.4204 33.6667 17.0002C33.6667 7.7835 26.1667 0.333496 17 0.333496Z" fill="black"/>
</svg>
